<svg xmlns="http://www.w3.org/2000/svg" xmlns:xlink="http://www.w3.org/1999/xlink" width="488.311" height="104.978" filter="invert(93%) hue-rotate(180deg)" xmlns:v="https://vecta.io/nano"><style><![CDATA[.B{fill:none}.C{stroke-linecap:round}.D{stroke:#e03131}.E{fill:#e03131}.F{direction:ltr}.G{dominant-baseline:text-before-edge}.H{fill-rule:evenodd}.I{text-anchor:middle}.J{fill:#ff6f5c}.K{font-family:Helvetica, Segoe UI Emoji}.L{font-family:Virgil, Segoe UI Emoji}]]></style><defs><style>@font-face{font-family:"Virgil";src:url("https://excalidraw.com/Virgil.woff2")} @font-face{font-family:"Cascadia";src:url("https://excalidraw.com/Cascadia.woff2")} @font-face{font-family:"Assistant";src:url("https://excalidraw.com/Assistant-Regular.woff2")}</style><path id="A" d="M51.88 25.94c0 1.5-.13 3.03-.39 4.51a26.48 26.48 0 0 1-1.17 4.36c-.52 1.41-1.16 2.8-1.91 4.1s-1.63 2.56-2.6 3.71a25.3 25.3 0 0 1-3.19 3.19c-1.15.97-2.41 1.85-3.71 2.6s-2.69 1.39-4.1 1.91a26.48 26.48 0 0 1-4.36 1.17c-1.48.26-3.01.39-4.51.39a26.13 26.13 0 0 1-4.5-.39c-1.48-.26-2.96-.66-4.37-1.17-1.41-.52-2.8-1.16-4.1-1.91s-2.55-1.63-3.7-2.6c-1.15-.96-2.24-2.04-3.2-3.19a25.68 25.68 0 0 1-2.59-3.71 25.93 25.93 0 0 1-1.92-4.1 26.48 26.48 0 0 1-1.17-4.36C.13 28.97 0 27.44 0 25.94a26.13 26.13 0 0 1 .39-4.5c.26-1.48.66-2.96 1.17-4.37a25.93 25.93 0 0 1 1.92-4.1c.75-1.3 1.62-2.55 2.59-3.7.96-1.15 2.05-2.24 3.2-3.2 1.15-.97 2.4-1.84 3.7-2.59a25.93 25.93 0 0 1 4.1-1.92c1.41-.51 2.89-.91 4.37-1.17a26.13 26.13 0 0 1 4.5-.39c1.5 0 3.03.13 4.51.39a26.48 26.48 0 0 1 4.36 1.17 25.93 25.93 0 0 1 4.1 1.92 25.68 25.68 0 0 1 3.71 2.59c1.15.96 2.23 2.05 3.19 3.2.97 1.15 1.85 2.4 2.6 3.7s1.39 2.69 1.91 4.1c.51 1.41.91 2.89 1.17 4.37s.33 3.75.39 4.5c.07.75.07-.75 0 0"/><path id="B" d="M47.83 23.92c0 1.38-.12 2.79-.36 4.15s-.6 2.73-1.08 4.03c-.47 1.3-1.07 2.58-1.76 3.78a23.72 23.72 0 0 1-2.39 3.41c-.89 1.06-1.89 2.06-2.95 2.95a23.72 23.72 0 0 1-3.41 2.39c-1.2.69-2.48 1.29-3.78 1.76-1.3.48-2.67.84-4.03 1.08s-2.77.36-4.15.36c-1.39 0-2.79-.12-4.16-.36-1.36-.24-2.72-.6-4.02-1.08-1.3-.47-2.58-1.07-3.78-1.76s-2.36-1.5-3.42-2.39-2.05-1.89-2.94-2.95a24.61 24.61 0 0 1-2.4-3.41 24.96 24.96 0 0 1-1.76-3.78C.97 30.8.6 29.43.36 28.07S0 25.3 0 23.92c0-1.39.12-2.79.36-4.16.24-1.36.61-2.72 1.08-4.02a24.96 24.96 0 0 1 1.76-3.78c.7-1.2 1.51-2.36 2.4-3.42S7.48 6.49 8.54 5.6s2.22-1.7 3.42-2.4a24.96 24.96 0 0 1 3.78-1.76C17.04.97 18.4.6 19.76.36 21.13.12 22.53 0 23.92 0c1.38 0 2.79.12 4.15.36s2.73.61 4.03 1.08a24.96 24.96 0 0 1 3.78 1.76 24.61 24.61 0 0 1 3.41 2.4c1.06.89 2.06 1.88 2.95 2.94s1.7 2.22 2.39 3.42 1.29 2.48 1.76 3.78c.48 1.3.84 2.66 1.08 4.02.24 1.37.3 3.47.36 4.16.07.69.07-.69 0 0"/></defs><g transform="matrix(1 0 0 1 16.215817 10)" class="B C"><path d="M-.26 6.4C.65 4.98 2.73 3.53 4.99.36M-.26 6.4C1.41 3.93 3.39 1.54 4.99.36M.13 12.04C3.3 6.97 6.89 6.54 10.63-.03M.13 12.04c1.8-2.02 4.44-4.53 10.5-12.07M-.13 18.44C7.77 10.05 11.88 3.34 15.62.33M-.13 18.44C5 13.25 10.76 6.23 15.62.33M.27 24.08C6.81 13.55 16.88 6.97 21.26-.07M.27 24.08C7.09 16.66 15.81 8.49 21.26-.07M0 30.48C9.5 19.35 19.56 5.76 26.25.29M0 30.48C5.93 22.75 12.65 14.62 26.25.29M-.26 36.88C12.2 25.02 19.61 13.52 31.89-.1M-.26 36.88C11.27 23.26 20.77 11.49 31.89-.1M.14 42.52C8.83 31.72 21.12 17.27 36.88.26M.14 42.52C10.6 29.43 21.32 17.79 36.88.26m-37 48.66C12.04 34.33 25.77 19.71 42.52-.14M-.12 48.92C12.68 34.49 25.37 20.61 42.52-.14M.27 54.56C14.85 40.6 27.39 22.82 47.51.22M.27 54.56L47.51.22M.67 60.2C19.42 37.11 39.15 16.27 53.15-.17M.67 60.2C14.27 44.98 26.04 29.65 53.15-.17M5.65 60.56C17.24 46.78 30.75 31.58 58.14.19M5.65 60.56C18.73 44.85 31 30.56 58.14.19M11.3 60.17c13.45-14.78 23.59-29 52.48-60.38M11.3 60.17C29.76 41.35 46.34 19.59 63.78-.21m-47.5 60.74C29.37 48.02 39.81 32.04 68.77.15M16.28 60.53C34.81 40.57 53.46 18.84 68.77.15M21.93 60.14C35.57 45.62 52.02 26.33 74.41-.24M21.93 60.14C32.7 45.8 44.63 32.85 74.41-.24M26.91 60.5C41.76 39.81 62.09 19.91 79.4.12M26.91 60.5C47.23 35.23 69.05 12.36 79.4.12M32.56 60.1C48.8 39.51 67.36 18.85 85.04-.28M32.56 60.1C44.65 45.92 56.62 31.09 85.04-.28m-47.5 60.74C58.19 36.31 77.51 12.54 90.03.08M37.54 60.46L90.03.08M43.19 60.07C62.84 38.41 81.01 17.57 95.67-.31M43.19 60.07C57.68 43.12 72.96 24.8 95.67-.31m-47.5 60.74C67.85 38.99 83.76 17.73 100.66.05M48.17 60.43L100.66.05m-47.5 60.74L106.3-.34M53.16 60.79L106.3-.34M58.8 60.39C74.01 43.09 90.21 22.13 111.29.02M58.8 60.39L111.29.02m-47.5 60.73C78.93 39.49 99.52 22.47 116.27.38M63.79 60.75C78.72 44.13 93.13 26.51 116.27.38M69.43 60.36c9.42-13.99 21.58-26.24 52.49-60.38M69.43 60.36C80.66 45.4 93.56 32.06 121.92-.02m-47.5 60.74C88.16 48.2 96.82 30.91 126.91.34M74.42 60.72C91.7 42.1 108.61 22.93 126.91.34M80.06 60.32c18.66-24.05 38.53-47.53 52.49-60.37M80.06 60.32c17.88-21.36 36.33-42.46 52.49-60.37m-47.5 60.73c19.2-20.38 36.92-41.41 52.49-60.37M85.05 60.68c20.84-23.67 42.42-47.35 52.49-60.37M90.69 60.29c11.8-13.4 23.08-24.9 52.49-60.38M90.69 60.29c11.8-12.88 24.13-28.47 52.49-60.38m-47.5 60.74c15.84-18.68 34.2-36.54 52.49-60.38M95.68 60.65c14.86-18.12 30.36-35.94 52.49-60.38m-46.85 59.98c13.06-14.38 25.51-30.81 52.49-60.37m-52.49 60.37c15.08-18.57 31.6-35.58 52.49-60.37m-47.5 60.73C128.9 35.55 147.29 12.06 158.8.24m-52.49 60.37C126.3 35.83 147.02 12.2 158.8.24m-46.85 59.98c17.1-16.53 32.7-35.28 51.83-59.62m-51.83 59.62C125.62 47.1 137.77 31.81 163.78.6m-46.84 59.98C132.89 38.39 151.82 19.69 163.52 7m-46.58 53.58C130.7 43.95 146.83 26.12 163.52 7m-40.94 53.18c13.15-16.08 28.66-34.39 41.34-47.54m-41.34 47.54c15.7-19.27 31.96-37.79 41.34-47.54m-36.35 47.91c7.87-12.45 17.81-23.96 36.08-41.51m-36.08 41.51c7.61-9.81 16.65-20.43 36.08-41.51m-30.44 41.11c4.77-5.74 14.87-16.17 30.18-34.72m-30.18 34.72c11.64-11.71 21.22-24.01 30.18-34.72M138.2 60.51c11.21-11.05 20.3-22.39 25.59-29.43M138.2 60.51c6.25-5.95 10.07-13.85 25.59-29.43m-19.95 29.04c8.21-6.01 14.56-15.9 19.69-22.65m-19.69 22.65l19.69-22.65m-14.7 23.01c7.3-8.57 10.74-13.92 15.09-17.36m-15.09 17.36c3.81-5.25 7.81-9.35 15.09-17.36m-9.45 16.96c3.79-3.62 7.4-7.78 9.19-10.56m-9.19 10.56c2.55-2.7 4.68-5.13 9.19-10.56m-4.2 10.92c2.09-1.28 2.48-3.8 3.94-4.53m-3.94 4.53c.81-.92 1.83-1.54 3.94-4.53" stroke="#ff6f5c" stroke-width=".5"/><path d="M0 0c44.29.69 86.03.71 162.81 0M0 0c39.57.77 79.35.68 162.81 0m0 0c-.1 14.97-1.16 30.38 0 60m0-60c-.47 23.55.12 45.58 0 60m0 0C108.06 61.87 50.04 59.89 0 60m162.81 0C101.65 59.42 42.09 59.88 0 60m0 0C-.36 38.36.7 15.37 0 0m0 60C.86 37.38-1.01 16.89 0 0" class="D"/></g><g transform="matrix(1 0 0 1 87.11203 19.3)" class="E F G I K"><text x="10.508" font-size="36" style="white-space:pre" y="0">=</text></g><g transform="matrix(1 0 0 1 10 73.995172)" class="E F G I L"><text x="87.342" font-size="16" style="white-space:pre" y="0">Convert Email to Gist</text></g><g transform="matrix(1 0 0 1 25.942768 35.481994)"><path d="M.72.16l41.63-.5-.4 25.47L.58 26.31" class="J"/><path d="M0 0c11.6.87 24.38.27 41.82 0M0 0h41.82m0 0c.72 6.81.87 13.4 0 25.63m0-25.63c.23 8.92.07 19.01 0 25.63m0 0c-15.38.7-32.79-.8-41.82 0m41.82 0c-13.96.5-28.61.19-41.82 0m0 0C.6 17.95.39 10.98 0 0m0 25.63C.55 19.7-.02 13.19 0 0" class="B C D"/></g><g transform="matrix(.692225 -.721681 .721681 .692225 26.784108 36.451599)"><path d="M.53-.34l28.96-.17.45 29.42-30.11-1.33" class="J"/><path d="M0 0c8.61.13 17.98.59 29.36 0M0 0c10.79-.13 21.6-.4 29.36 0m0 0c1.08 6.96.78 14.91 0 28.23m0-28.23c.11 8.19.48 15.55 0 28.23m0 0c-9-.66-16.37.16-29.36 0m29.36 0c-11.44.1-22.73.36-29.36 0m0 0C.37 22.38-.73 13.73 0 0m0 28.23C-.27 16.99.24 6.48 0 0" class="B C D"/></g><g transform="matrix(1 0 0 1 118.226439 14.108265)"><use xlink:href="#A" fill="#868e96"/><use xlink:href="#A" class="B C D"/></g><g transform="matrix(1 0 0 1 133.974203 24.516315)" class="H"><path d="M0 0c.42.15 1.82.44 2.52.89.71.45 1.03 1.64 1.7 1.82s.86-.65 2.32-.76 5.05.04 6.46.09c1.42.05 1.42.37 2.02.2.59-.18.94-.79 1.56-1.25.62-.45 1.7-1.59 2.16-1.5s.51 1.39.6 2.07-.38 1.36-.06 2.01 1.51.67 1.99 1.9c.47 1.22.85 3.58.88 5.44.04 1.86-.24 4.38-.69 5.7s-1.23 1.65-2.02 2.21c-.8.57-1.8.88-2.75 1.19-.96.31-2.61.42-2.97.65-.37.24.5.35.78.74.28.4.71.51.89 1.64s.16 3.76.18 5.14c.03 1.37.13 2.5-.03 3.11-.17.6.41.42-.97.53s-5.96.26-7.33.13-.72-.14-.92-.9c-.19-.76.07-3.13-.25-3.66-.33-.53-.94.36-1.69.47s-1.9.4-2.8.18-1.91-.81-2.61-1.5c-.71-.68-1.09-1.91-1.63-2.62-.53-.7-1.03-1.15-1.58-1.61-.55-.45-1.81-.98-1.71-1.13s1.66-.03 2.32.22 1.06.77 1.65 1.27c.58.51 1.17 1.29 1.86 1.77s1.47.97 2.27 1.1c.79.13 1.88-.1 2.51-.31.63-.22 1.02-.56 1.24-.98.23-.42-.01-1.06.12-1.53.13-.48.41-1.02.67-1.34s1.27-.36.87-.6-2.21-.53-3.28-.85c-1.07-.31-2.35-.47-3.14-1.03s-1.13-1.01-1.6-2.33c-.46-1.32-1.15-3.79-1.19-5.61-.05-1.81.56-4.15.95-5.27C-.32 4.57.57 4.81.67 4.24c.09-.57-.68-1.26-.79-1.96C-.23 1.57-.02.38 0 0" fill="#fff"/><path d="M0 0c.42.15 1.82.44 2.52.89.71.45 1.03 1.64 1.7 1.82s.86-.65 2.32-.76 5.05.04 6.46.09c1.42.05 1.42.37 2.02.2.59-.18.94-.79 1.56-1.25.62-.45 1.7-1.59 2.16-1.5s.51 1.39.6 2.07-.38 1.36-.06 2.01 1.51.67 1.99 1.9c.47 1.22.85 3.58.88 5.44.04 1.86-.24 4.38-.69 5.7s-1.23 1.65-2.02 2.21c-.8.57-1.8.88-2.75 1.19-.96.31-2.61.42-2.97.65-.37.24.5.35.78.74.28.4.71.51.89 1.64s.16 3.76.18 5.14c.03 1.37.13 2.5-.03 3.11-.17.6.41.42-.97.53s-5.96.26-7.33.13-.72-.14-.92-.9c-.19-.76.07-3.13-.25-3.66-.33-.53-.94.36-1.69.47s-1.9.4-2.8.18-1.91-.81-2.61-1.5c-.71-.68-1.09-1.91-1.63-2.62-.53-.7-1.03-1.15-1.58-1.61-.55-.45-1.81-.98-1.71-1.13s1.66-.03 2.32.22 1.06.77 1.65 1.27c.58.51 1.17 1.29 1.86 1.77s1.47.97 2.27 1.1c.79.13 1.88-.1 2.51-.31.63-.22 1.02-.56 1.24-.98.23-.42-.01-1.06.12-1.53.13-.48.41-1.02.67-1.34s1.27-.36.87-.6-2.21-.53-3.28-.85c-1.07-.31-2.35-.47-3.14-1.03s-1.13-1.01-1.6-2.33c-.46-1.32-1.15-3.79-1.19-5.61-.05-1.81.56-4.15.95-5.27C-.32 4.57.57 4.81.67 4.24c.09-.57-.68-1.26-.79-1.96C-.23 1.57-.02.38 0 0m0 0c.42.15 1.82.44 2.52.89.71.45 1.03 1.64 1.7 1.82s.86-.65 2.32-.76 5.05.04 6.46.09c1.42.05 1.42.37 2.02.2.59-.18.94-.79 1.56-1.25.62-.45 1.7-1.59 2.16-1.5s.51 1.39.6 2.07-.38 1.36-.06 2.01 1.51.67 1.99 1.9c.47 1.22.85 3.58.88 5.44.04 1.86-.24 4.38-.69 5.7s-1.23 1.65-2.02 2.21c-.8.57-1.8.88-2.75 1.19-.96.31-2.61.42-2.97.65-.37.24.5.35.78.74.28.4.71.51.89 1.64s.16 3.76.18 5.14c.03 1.37.13 2.5-.03 3.11-.17.6.41.42-.97.53s-5.96.26-7.33.13-.72-.14-.92-.9c-.19-.76.07-3.13-.25-3.66-.33-.53-.94.36-1.69.47s-1.9.4-2.8.18-1.91-.81-2.61-1.5c-.71-.68-1.09-1.91-1.63-2.62-.53-.7-1.03-1.15-1.58-1.61-.55-.45-1.81-.98-1.71-1.13s1.66-.03 2.32.22 1.06.77 1.65 1.27c.58.51 1.17 1.29 1.86 1.77s1.47.97 2.27 1.1c.79.13 1.88-.1 2.51-.31.63-.22 1.02-.56 1.24-.98.23-.42-.01-1.06.12-1.53.13-.48.41-1.02.67-1.34s1.27-.36.87-.6-2.21-.53-3.28-.85c-1.07-.31-2.35-.47-3.14-1.03s-1.13-1.01-1.6-2.33c-.46-1.32-1.15-3.79-1.19-5.61-.05-1.81.56-4.15.95-5.27C-.32 4.57.57 4.81.67 4.24c.09-.57-.68-1.26-.79-1.96C-.23 1.57-.02.38 0 0" class="B C D"/></g><g transform="matrix(1 0 0 1 324.916732 15.839615)" class="B C"><path d="M-.26 6.4C.51 5.68 1.32 3.79 4.99.36M-.26 6.4C1.67 4.46 3.36 2.56 4.99.36M.13 12.04c3.6-3.5 5.29-7.56 10.5-12.07M.13 12.04c2.2-2.17 4.9-5.46 10.5-12.07M-.13 18.44C5.2 12.06 9 8.38 15.62.33M-.13 18.44C3.76 12.62 7.51 8.13 15.62.33M.27 24.08C8.74 15.72 13.91 7.64 21.26-.07M.27 24.08C7.65 15.66 14.98 6.36 21.26-.07M0 30.48C7.76 23.36 12.83 17.7 26.25.29M0 30.48C8.8 20.34 17.17 11.51 26.25.29M-.26 36.88L31.89-.1M-.26 36.88C10.08 23.88 21.28 11.5 31.89-.1M.14 42.52C12.27 26.11 27.72 10.98 36.88.26M.14 42.52C11.64 28.5 22.6 15.96 36.88.26m-37 48.66C13.39 32.89 26.53 15.32 42.52-.14M-.12 48.92C12.4 34.96 25.07 18.97 42.52-.14M.27 54.56C15.04 38.95 26.69 25.78 47.51.22M.27 54.56C17.33 33.06 35.07 13.64 47.51.22M3.29 57.19C18.33 38.53 32.89 21.7 53.15-.17M3.29 57.19C14.85 45.01 26.22 30.75 53.15-.17M8.93 56.79C25.98 34.09 45.24 12.42 58.14.19M8.93 56.79C24.85 39.87 38.59 22.15 58.14.19M13.92 57.15C28.5 37.68 45.49 23.45 63.78-.21M13.92 57.15L63.78-.21M19.56 56.76L68.77.15M19.56 56.76L68.77.15M24.55 57.12c8.51-11.43 18.97-24.8 49.86-57.36M24.55 57.12C40.71 37.56 57.46 20.18 74.41-.24M29.54 57.48C40.37 42.09 54.44 31.32 79.4.12M29.54 57.48L79.4.12M35.18 57.08C51.56 36.41 70.68 12.94 85.04-.28M35.18 57.08C44.84 44.92 56.39 32.65 85.04-.28M40.17 57.44C55.8 40.88 68.44 23.2 90.03.08M40.17 57.44C54.8 42.92 67.75 27.28 90.03.08M45.81 57.05C66.65 35.86 85.46 12.38 95.67-.31M45.81 57.05C59.72 40.1 74.69 25.43 95.67-.31M50.8 57.41C72.1 35.97 88.68 10.53 100.66.05M50.8 57.41C64.47 40.66 79.27 24.02 100.66.05M56.44 57.01C74.4 38.17 92.2 17.49 106.3-.34M56.44 57.01L106.3-.34M61.43 57.37C76.2 42.54 86.86 27.64 111.29.02M61.43 57.37C78.22 37.2 95.6 18.86 111.29.02M67.07 56.98c17.44-22.94 37.12-44.6 49.2-56.6m-49.2 56.6l49.2-56.6M72.06 57.34c17.26-22.05 33.81-39.6 49.86-57.36M72.06 57.34c16.73-18.09 31.56-35.08 49.86-57.36M77.7 56.94L126.91.34M77.7 56.94c9.9-12.65 22.57-25.34 49.21-56.6M82.69 57.3c12.95-13.85 21.07-23.88 49.86-57.35M82.69 57.3c13.16-14.09 27.14-30.89 49.86-57.35M88.33 56.91c14.73-14.97 29.39-35.32 49.21-56.6m-49.21 56.6c15.86-16.43 30.11-34.35 49.21-56.6M93.32 57.27c18.81-20.96 32.97-40.06 49.86-57.36M93.32 57.27c17.57-18.92 34.92-39.03 49.86-57.36M98.96 56.88C115.8 37.87 131.63 18.03 148.17.27M98.96 56.88C109.85 45.4 121.77 31.53 148.17.27m-44.22 56.97c15.39-19.57 31.01-36.23 49.86-57.36m-49.86 57.36c11.04-14.22 23.28-27 49.86-57.36m-44.22 56.96c19.1-20.41 34.07-38.87 43.96-50.57m-43.96 50.57c16.6-19.81 33.37-39.07 43.96-50.57M114.58 57.2c10.25-10.11 16.26-21.13 38.71-44.53M114.58 57.2c10.28-12.42 22.58-25.95 38.71-44.53m-33.07 44.14c9.78-12.63 18.06-22.51 33.46-38.49m-33.46 38.49c12.02-13.78 21.78-26.3 33.46-38.49m-28.47 38.85c7.48-6.11 12.76-16.1 28.21-32.46m-28.21 32.46c6.94-6.61 12.89-14.89 28.21-32.46m-22.57 32.06c8.99-10.12 13.82-17.41 22.96-26.41m-22.96 26.41c8.53-10.15 17.38-21.08 22.96-26.41m-17.97 26.77c4.52-6.65 12.76-12.53 17.71-20.38m-17.71 20.38c4.37-5.29 8.4-9.03 17.71-20.38m-12.72 20.74c1.74-2.52 6.93-7.08 12.46-14.34m-12.46 14.34c3.09-3.11 5.64-5.81 12.46-14.34m-6.82 13.95c2.66-3.32 4.92-4.35 7.21-8.3m-7.21 8.3c1.91-1.74 4.21-4.09 7.21-8.3m-2.22 8.66c.53-.88 1.58-1.85 1.96-2.27m-1.96 2.27c.46-.53 1.22-1.2 1.96-2.27" stroke="#ff6f5c" stroke-width=".5"/><path d="M0 0c36.64-2.21 76.42-1.44 153.39 0M0 0h153.39m0 0c-1.53 13.76-1.03 26.66 0 56.53m0-56.53v56.53m0 0c-38.42-1.89-78.81-.1-153.39 0m153.39 0c-36.8 1-74.14-.03-153.39 0m0 0C2.01 33.85 1.69 14.66 0 0m0 56.53C-.02 35.42-1.43 15.22 0 0" class="D"/></g><g transform="matrix(1 0 0 1 391.688971 24.601832)" class="E F G I K"><text x="9.925" font-size="33.918" style="white-space:pre" y="0">=</text></g><g transform="matrix(1 0 0 1 330.396605 76.134196)" class="E F G I L"><text x="68.667" font-size="15.075" style="white-space:pre" y="0">Render HTML Gist</text></g><g transform="matrix(1 0 0 1 331.939384 21.603981)"><use xlink:href="#B" fill="#868e96"/><use xlink:href="#B" class="B C D"/></g><g transform="matrix(1 0 0 1 346.458592 31.200052)" class="H"><path d="M0 0c.39.14 1.68.4 2.33.82.64.41.95 1.52 1.56 1.68.62.16.79-.6 2.14-.7 1.35-.11 4.66.03 5.96.08 1.3.04 1.31.34 1.86.18s.86-.72 1.43-1.14c.58-.43 1.58-1.48 2-1.39.43.09.47 1.28.55 1.91.08.62-.35 1.25-.05 1.85s1.39.62 1.83 1.75.79 3.31.81 5.02c.03 1.71-.22 4.04-.64 5.25-.41 1.22-1.12 1.52-1.86 2.04-.73.53-1.65.82-2.53 1.1s-2.41.39-2.74.6c-.34.22 1.21-1.05.72.68-.49 1.74-3.82 8.68-3.66 9.72.17 1.04 3.88-3.37 4.65-3.47s.12 2.3-.04 2.86c-.15.57.39.4-.89.5-1.27.1-5.49.23-6.75.12-1.27-.12-.67-.13-.85-.83s.06-2.88-.24-3.37c-.29-.49-.86.33-1.55.43s-1.75.37-2.58.16c-.83-.2-1.76-.75-2.41-1.38s-1.01-1.76-1.5-2.41-.95-1.07-1.46-1.49-1.67-.9-1.58-1.04c.1-.14 1.54-.03 2.14.2.61.23.98.71 1.52 1.17.54.47 1.09 1.19 1.72 1.63.64.44 1.36.9 2.09 1.02s1.74-.09 2.32-.29c.57-.2.93-.51 1.14-.9s-.01-.97.11-1.42c.12-.44.38-.93.62-1.23.23-.3 1.17-.33.8-.55-.37-.23-2.04-.49-3.03-.78-.98-.29-1.41.68-2.89-.95-1.47-1.64-5.52-7.65-5.95-8.87s2.67 2.1 3.37 1.55c.71-.56.52-3.83.88-4.87C-.29 4.21.53 4.43.62 3.91.7 3.39-.01 2.75-.11 2.1S-.02.35 0 0" fill="#fff"/><path d="M0 0c.39.14 1.68.4 2.33.82.64.41.95 1.52 1.56 1.68.62.16.79-.6 2.14-.7 1.35-.11 4.66.03 5.96.08 1.3.04 1.31.34 1.86.18s.86-.72 1.43-1.14c.58-.43 1.58-1.48 2-1.39.43.09.47 1.28.55 1.91.08.62-.35 1.25-.05 1.85s1.39.62 1.83 1.75.79 3.31.81 5.02c.03 1.71-.22 4.04-.64 5.25-.41 1.22-1.12 1.52-1.86 2.04-.73.53-1.65.82-2.53 1.1s-2.41.39-2.74.6c-.34.22 1.21-1.05.72.68-.49 1.74-3.82 8.68-3.66 9.72.17 1.04 3.88-3.37 4.65-3.47s.12 2.3-.04 2.86c-.15.57.39.4-.89.5-1.27.1-5.49.23-6.75.12-1.27-.12-.67-.13-.85-.83s.06-2.88-.24-3.37c-.29-.49-.86.33-1.55.43s-1.75.37-2.58.16c-.83-.2-1.76-.75-2.41-1.38s-1.01-1.76-1.5-2.41-.95-1.07-1.46-1.49-1.67-.9-1.58-1.04c.1-.14 1.54-.03 2.14.2.61.23.98.71 1.52 1.17.54.47 1.09 1.19 1.72 1.63.64.44 1.36.9 2.09 1.02s1.74-.09 2.32-.29c.57-.2.93-.51 1.14-.9s-.01-.97.11-1.42c.12-.44.38-.93.62-1.23.23-.3 1.17-.33.8-.55-.37-.23-2.04-.49-3.03-.78-.98-.29-1.41.68-2.89-.95-1.47-1.64-5.52-7.65-5.95-8.87s2.67 2.1 3.37 1.55c.71-.56.52-3.83.88-4.87C-.29 4.21.53 4.43.62 3.91.7 3.39-.01 2.75-.11 2.1S-.02.35 0 0m0 0c.39.14 1.68.4 2.33.82.64.41.95 1.52 1.56 1.68.62.16.79-.6 2.14-.7 1.35-.11 4.66.03 5.96.08 1.3.04 1.31.34 1.86.18s.86-.72 1.43-1.14c.58-.43 1.58-1.48 2-1.39.43.09.47 1.28.55 1.91.08.62-.35 1.25-.05 1.85s1.39.62 1.83 1.75.79 3.31.81 5.02c.03 1.71-.22 4.04-.64 5.25-.41 1.22-1.12 1.52-1.86 2.04-.73.53-1.65.82-2.53 1.1s-2.41.39-2.74.6c-.34.22 1.21-1.05.72.68-.49 1.74-3.82 8.68-3.66 9.72.17 1.04 3.88-3.37 4.65-3.47s.12 2.3-.04 2.86c-.15.57.39.4-.89.5-1.27.1-5.49.23-6.75.12-1.27-.12-.67-.13-.85-.83s.06-2.88-.24-3.37c-.29-.49-.86.33-1.55.43s-1.75.37-2.58.16c-.83-.2-1.76-.75-2.41-1.38s-1.01-1.76-1.5-2.41-.95-1.07-1.46-1.49-1.67-.9-1.58-1.04c.1-.14 1.54-.03 2.14.2.61.23.98.71 1.52 1.17.54.47 1.09 1.19 1.72 1.63.64.44 1.36.9 2.09 1.02s1.74-.09 2.32-.29c.57-.2.93-.51 1.14-.9s-.01-.97.11-1.42c.12-.44.38-.93.62-1.23.23-.3 1.17-.33.8-.55-.37-.23-2.04-.49-3.03-.78-.98-.29-1.41.68-2.89-.95-1.47-1.64-5.52-7.65-5.95-8.87s2.67 2.1 3.37 1.55c.71-.56.52-3.83.88-4.87C-.29 4.21.53 4.43.62 3.91.7 3.39-.01 2.75-.11 2.1S-.02.35 0 0" class="B C D"/></g><g transform="matrix(1 0 0 1 432.418231 27.40579)" class="H"><path d="M0 0l35.03-.2-2.59 35.93-14.73 4.67-15.12-4.37L0 0" class="J"/><path d="M0 0l35.03-.2M0 0l35.03-.2m0 0l-2.59 35.93M35.03-.2l-2.59 35.93m0 0L17.71 40.4m14.73-4.67L17.71 40.4m0 0L2.59 36.03m15.12 4.37L2.59 36.03m0 0L0 0m2.59 36.03L0 0m0 0" class="B C D"/></g><g transform="matrix(1 0 0 1 449.436029 30.391368)" class="H"><path d="M0 0l1 33.04 12.44-3.48L15.23-.3 0 0" class="J"/><path d="M0 0l1 33.04M0 0l1 33.04m0 0l12.44-3.48M1 33.04l12.44-3.48m0 0L15.23-.3m-1.79 29.86L15.23-.3m0 0L0 0m15.23-.3L0 0m0 0" class="B C D"/></g><g fill-opacity=".6" transform="matrix(1 0 0 1 441.998919 18.751414)" class="E F G K"><text font-size="6.813" style="white-space:pre" x="0" y="0">HTML</text></g><g fill-opacity=".6" transform="matrix(1 0 0 1 458.292649 31.576356)" class="H"><path d="M-.55-.32l-.23 4.37-10.56.33.68 4.45 10.7.77-.61 14.25-7.83 1.39-5.68-1.09-2.76-8.54 4.73.37.78 3.56 2.56 2.28 5.51-3.55.33-5.39-13.77.28.91-12.67L.52-.48" fill="#fff"/><path d="M0 0c-.19 1.27-.48 2.37-.49 4.06M0 0l-.49 4.06m0 0c-3.84.25-6.9-.14-10.22-.49m10.22.49c-3.98-.09-8.02-.12-10.22-.49m0 0l-.32 4.7m.32-4.7c-.19 1.91-.33 3.72-.32 4.7m0 0C-8 8.69-5.71 9.24.16 9.41m-11.19-1.14c2.83.28 5.83.75 11.19 1.14m0 0c.06 3.5-.51 6.2-.16 13.79M.16 9.41C-.17 12.17.17 14.9 0 23.2m0 0c-2.54 1.16-4.79 2.04-7.46 2.92M0 23.2c-2.48.84-5.07 2.01-7.46 2.92m0 0c-2.12-.85-3.41-.92-7.14-2.36m7.14 2.36a99.64 99.64 0 0 1-7.14-2.36m0 0c-.64-2.74-1.49-6.24-1.62-7.38m1.62 7.38c-.33-1.63-.85-3.6-1.62-7.38m0 0c1.46-.15 2.71.08 3.89-.08m-3.89.08c1.13.03 2.31-.1 3.89-.08m0 0c.1 1-.03 2.1.25 3.77m-.25-3.77c.06 1.16.06 2.23.25 3.77m0 0c1.08.36 1.76.84 4.29 2.48m-4.29-2.48c1.17.8 2.38 1.44 4.29 2.48m0 0c1.15-1.01 2.38-1.73 5.03-3.41m-5.03 3.41c1.34-.86 3-1.86 5.03-3.41m0 0c-.38-2.1-.04-3.96-.48-6m.48 6c-.3-2.27-.28-4.42-.48-6m0 0l-12.82-.81m12.82.81c-3.94-.5-7.53-.51-12.82-.81m0 0c-.12-3.14.31-6.35.81-12.33m-.81 12.33c.31-4.83.42-9.4.81-12.33m0 0C-10.43.37-4.38.01 0 0m-15.25 0C-10.76-.45-5.9.29 0 0m0 0" stroke-opacity=".6" class="B C D"/></g></svg>