<svg xmlns="http://www.w3.org/2000/svg" xmlns:xlink="http://www.w3.org/1999/xlink" width="508.895" height="104.978" filter="invert(93%) hue-rotate(180deg)" xmlns:v="https://vecta.io/nano"><style><![CDATA[.B{fill:none}.C{stroke-linecap:round}.D{stroke:#e03131}.E{fill:#e03131}.F{direction:ltr}.G{dominant-baseline:text-before-edge}.H{text-anchor:middle}.I{font-family:Virgil, Segoe UI Emoji}]]></style><defs><style>@font-face{font-family:"Virgil";src:url("https://excalidraw.com/Virgil.woff2")} @font-face{font-family:"Cascadia";src:url("https://excalidraw.com/Cascadia.woff2")} @font-face{font-family:"Assistant";src:url("https://excalidraw.com/Assistant-Regular.woff2")}</style><path id="A" d="M51.88 25.94c0 1.5-.13 3.03-.39 4.51a26.48 26.48 0 0 1-1.17 4.36c-.52 1.41-1.16 2.8-1.91 4.1s-1.63 2.56-2.6 3.71a25.3 25.3 0 0 1-3.19 3.19c-1.15.97-2.41 1.85-3.71 2.6s-2.69 1.39-4.1 1.91a26.48 26.48 0 0 1-4.36 1.17c-1.48.26-3.01.39-4.51.39a26.13 26.13 0 0 1-4.5-.39c-1.48-.26-2.96-.66-4.37-1.17-1.41-.52-2.8-1.16-4.1-1.91s-2.55-1.63-3.7-2.6c-1.15-.96-2.24-2.04-3.2-3.19a25.68 25.68 0 0 1-2.59-3.71 25.93 25.93 0 0 1-1.92-4.1 26.48 26.48 0 0 1-1.17-4.36C.13 28.97 0 27.44 0 25.94a26.13 26.13 0 0 1 .39-4.5c.26-1.48.66-2.96 1.17-4.37a25.93 25.93 0 0 1 1.92-4.1c.75-1.3 1.62-2.55 2.59-3.7.96-1.15 2.05-2.24 3.2-3.2 1.15-.97 2.4-1.84 3.7-2.59a25.93 25.93 0 0 1 4.1-1.92c1.41-.51 2.89-.91 4.37-1.17a26.13 26.13 0 0 1 4.5-.39c1.5 0 3.03.13 4.51.39a26.48 26.48 0 0 1 4.36 1.17 25.93 25.93 0 0 1 4.1 1.92 25.68 25.68 0 0 1 3.71 2.59c1.15.96 2.23 2.05 3.19 3.2.97 1.15 1.85 2.4 2.6 3.7s1.39 2.69 1.91 4.1c.51 1.41.91 2.89 1.17 4.37s.33 3.75.39 4.5c.07.75.07-.75 0 0"/><path id="B" d="M13.96 6.98c0 .41-.03.82-.1 1.21a6.86 6.86 0 0 1-.32 1.18 7.32 7.32 0 0 1-.51 1.1c-.2.35-.44.69-.7 1s-.55.6-.86.86-.65.5-1 .7a7.32 7.32 0 0 1-1.1.51 6.86 6.86 0 0 1-1.18.32c-.39.07-.8.1-1.21.1-.4 0-.81-.03-1.21-.1a6.86 6.86 0 0 1-1.18-.32 7.32 7.32 0 0 1-1.1-.51c-.35-.2-.69-.44-1-.7s-.6-.55-.86-.86-.49-.65-.69-1a6.5 6.5 0 0 1-.52-1.1 6.83 6.83 0 0 1-.31-1.18C.04 7.8 0 7.39 0 6.98a7.07 7.07 0 0 1 .11-1.21 6.83 6.83 0 0 1 .31-1.18 6.5 6.5 0 0 1 .52-1.1c.2-.35.43-.69.69-1s.55-.6.86-.86.65-.49 1-.69a6.5 6.5 0 0 1 1.1-.52A6.83 6.83 0 0 1 5.77.11 7.07 7.07 0 0 1 6.98 0c.41 0 .82.04 1.21.11a6.83 6.83 0 0 1 1.18.31 6.5 6.5 0 0 1 1.1.52c.35.2.69.43 1 .69s.6.55.86.86.5.65.7 1a7.32 7.32 0 0 1 .51 1.1 6.86 6.86 0 0 1 .32 1.18c.07.4.08 1.01.1 1.21s.02-.2 0 0"/></defs><g transform="matrix(1 0 0 1 14.649151 10)" class="B C"><path d="M-.26 6.4C.65 4.98 2.73 3.53 4.99.36M-.26 6.4C1.41 3.93 3.39 1.54 4.99.36M.13 12.04C3.3 6.97 6.89 6.54 10.63-.03M.13 12.04c1.8-2.02 4.44-4.53 10.5-12.07M-.13 18.44C7.77 10.05 11.88 3.34 15.62.33M-.13 18.44C5 13.25 10.76 6.23 15.62.33M.27 24.08C6.81 13.55 16.88 6.97 21.26-.07M.27 24.08C7.09 16.66 15.81 8.49 21.26-.07M0 30.48C9.5 19.35 19.56 5.76 26.25.29M0 30.48C5.93 22.75 12.65 14.62 26.25.29M-.26 36.88C12.2 25.02 19.61 13.52 31.89-.1M-.26 36.88C11.27 23.26 20.77 11.49 31.89-.1M.14 42.52C8.83 31.72 21.12 17.27 36.88.26M.14 42.52C10.6 29.43 21.32 17.79 36.88.26m-37 48.66C12.04 34.33 25.77 19.71 42.52-.14M-.12 48.92C12.68 34.49 25.37 20.61 42.52-.14M.27 54.56C14.85 40.6 27.39 22.82 47.51.22M.27 54.56L47.51.22M.67 60.2C19.42 37.11 39.15 16.27 53.15-.17M.67 60.2C14.27 44.98 26.04 29.65 53.15-.17M5.65 60.56C17.24 46.78 30.75 31.58 58.14.19M5.65 60.56C18.73 44.85 31 30.56 58.14.19M11.3 60.17c13.45-14.78 23.59-29 52.48-60.38M11.3 60.17C29.76 41.35 46.34 19.59 63.78-.21m-47.5 60.74C29.37 48.02 39.81 32.04 68.77.15M16.28 60.53C34.81 40.57 53.46 18.84 68.77.15M21.93 60.14C35.57 45.62 52.02 26.33 74.41-.24M21.93 60.14C32.7 45.8 44.63 32.85 74.41-.24M26.91 60.5C41.76 39.81 62.09 19.91 79.4.12M26.91 60.5C47.23 35.23 69.05 12.36 79.4.12M32.56 60.1C48.8 39.51 67.36 18.85 85.04-.28M32.56 60.1C44.65 45.92 56.62 31.09 85.04-.28m-47.5 60.74C58.19 36.31 77.51 12.54 90.03.08M37.54 60.46L90.03.08M43.19 60.07C62.84 38.41 81.01 17.57 95.67-.31M43.19 60.07C57.68 43.12 72.96 24.8 95.67-.31m-47.5 60.74C67.85 38.99 83.76 17.73 100.66.05M48.17 60.43L100.66.05m-47.5 60.74L106.3-.34M53.16 60.79L106.3-.34M58.8 60.39C74.01 43.09 90.21 22.13 111.29.02M58.8 60.39L111.29.02m-47.5 60.73C78.93 39.49 99.52 22.47 116.27.38M63.79 60.75C78.72 44.13 93.13 26.51 116.27.38M69.43 60.36c9.42-13.99 21.58-26.24 52.49-60.38M69.43 60.36C80.66 45.4 93.56 32.06 121.92-.02m-47.5 60.74C88.16 48.2 96.82 30.91 126.91.34M74.42 60.72C91.7 42.1 108.61 22.93 126.91.34M80.06 60.32c18.66-24.05 38.53-47.53 52.49-60.37M80.06 60.32c17.88-21.36 36.33-42.46 52.49-60.37m-47.5 60.73c19.2-20.38 36.92-41.41 52.49-60.37M85.05 60.68c20.84-23.67 42.42-47.35 52.49-60.37M90.69 60.29c11.8-13.4 23.08-24.9 52.49-60.38M90.69 60.29c11.8-12.88 24.13-28.47 52.49-60.38m-47.5 60.74c15.84-18.68 34.2-36.54 52.49-60.38M95.68 60.65c14.86-18.12 30.36-35.94 52.49-60.38m-46.85 59.98c13.06-14.38 25.51-30.81 52.49-60.37m-52.49 60.37c15.08-18.57 31.6-35.58 52.49-60.37m-47.5 60.73C128.9 35.55 147.29 12.06 158.8.24m-52.49 60.37C126.3 35.83 147.02 12.2 158.8.24m-46.85 59.98c17.1-16.53 32.7-35.28 51.83-59.62m-51.83 59.62C125.62 47.1 137.77 31.81 163.78.6m-46.84 59.98C132.89 38.39 151.82 19.69 163.52 7m-46.58 53.58C130.7 43.95 146.83 26.12 163.52 7m-40.94 53.18c13.15-16.08 28.66-34.39 41.34-47.54m-41.34 47.54c15.7-19.27 31.96-37.79 41.34-47.54m-36.35 47.91c7.87-12.45 17.81-23.96 36.08-41.51m-36.08 41.51c7.61-9.81 16.65-20.43 36.08-41.51m-30.44 41.11c4.77-5.74 14.87-16.17 30.18-34.72m-30.18 34.72c11.64-11.71 21.22-24.01 30.18-34.72M138.2 60.51c11.21-11.05 20.3-22.39 25.59-29.43M138.2 60.51c6.25-5.95 10.07-13.85 25.59-29.43m-19.95 29.04c8.21-6.01 14.56-15.9 19.69-22.65m-19.69 22.65l19.69-22.65m-14.7 23.01c7.3-8.57 10.74-13.92 15.09-17.36m-15.09 17.36c3.81-5.25 7.81-9.35 15.09-17.36m-9.45 16.96c3.79-3.62 7.4-7.78 9.19-10.56m-9.19 10.56c2.55-2.7 4.68-5.13 9.19-10.56m-4.2 10.92c2.09-1.28 2.48-3.8 3.94-4.53m-3.94 4.53c.81-.92 1.83-1.54 3.94-4.53" stroke="#ff6f5c" stroke-width=".5"/><path d="M0 0c44.29.69 86.03.71 162.81 0M0 0c39.57.77 79.35.68 162.81 0m0 0c-.1 14.97-1.16 30.38 0 60m0-60c-.47 23.55.12 45.58 0 60m0 0C108.06 61.87 50.04 59.89 0 60m162.81 0C101.65 59.42 42.09 59.88 0 60m0 0C-.36 38.36.7 15.37 0 0m0 60C.86 37.38-1.01 16.89 0 0" class="D"/></g><g transform="matrix(1 0 0 1 85.545364 19.3)" class="E F G H"><text x="10.508" font-family="Helvetica, Segoe UI Emoji" font-size="36" style="white-space:pre" y="0">=</text></g><g transform="matrix(1 0 0 1 10 73.995172)" class="E F G H I"><text x="85.775" font-size="16" style="white-space:pre" y="0">Delete Gist After 3h</text></g><g transform="matrix(1 0 0 1 116.659773 14.108265)"><use xlink:href="#A" fill="#868e96"/><use xlink:href="#A" class="B C D"/></g><g transform="matrix(1 0 0 1 132.407537 24.516315)" fill-rule="evenodd"><path d="M0 0c.42.15 1.82.44 2.52.89.71.45 1.03 1.64 1.7 1.82s.86-.65 2.32-.76 5.05.04 6.46.09c1.42.05 1.42.37 2.02.2.59-.18.94-.79 1.56-1.25.62-.45 1.7-1.59 2.16-1.5s.51 1.39.6 2.07-.38 1.36-.06 2.01 1.51.67 1.99 1.9c.47 1.22.85 3.58.88 5.44.04 1.86-.24 4.38-.69 5.7s-1.23 1.65-2.02 2.21c-.8.57-1.8.88-2.75 1.19-.96.31-2.61.42-2.97.65-.37.24.5.35.78.74.28.4.71.51.89 1.64s.16 3.76.18 5.14c.03 1.37.13 2.5-.03 3.11-.17.6.41.42-.97.53s-5.96.26-7.33.13-.72-.14-.92-.9c-.19-.76.07-3.13-.25-3.66-.33-.53-.94.36-1.69.47s-1.9.4-2.8.18-1.91-.81-2.61-1.5c-.71-.68-1.09-1.91-1.63-2.62-.53-.7-1.03-1.15-1.58-1.61-.55-.45-1.81-.98-1.71-1.13s1.66-.03 2.32.22 1.06.77 1.65 1.27c.58.51 1.17 1.29 1.86 1.77s1.47.97 2.27 1.1c.79.13 1.88-.1 2.51-.31.63-.22 1.02-.56 1.24-.98.23-.42-.01-1.06.12-1.53.13-.48.41-1.02.67-1.34s1.27-.36.87-.6-2.21-.53-3.28-.85c-1.07-.31-2.35-.47-3.14-1.03s-1.13-1.01-1.6-2.33c-.46-1.32-1.15-3.79-1.19-5.61-.05-1.81.56-4.15.95-5.27C-.32 4.57.57 4.81.67 4.24c.09-.57-.68-1.26-.79-1.96C-.23 1.57-.02.38 0 0" fill="#fff"/><path d="M0 0c.42.15 1.82.44 2.52.89.71.45 1.03 1.64 1.7 1.82s.86-.65 2.32-.76 5.05.04 6.46.09c1.42.05 1.42.37 2.02.2.59-.18.94-.79 1.56-1.25.62-.45 1.7-1.59 2.16-1.5s.51 1.39.6 2.07-.38 1.36-.06 2.01 1.51.67 1.99 1.9c.47 1.22.85 3.58.88 5.44.04 1.86-.24 4.38-.69 5.7s-1.23 1.65-2.02 2.21c-.8.57-1.8.88-2.75 1.19-.96.31-2.61.42-2.97.65-.37.24.5.35.78.74.28.4.71.51.89 1.64s.16 3.76.18 5.14c.03 1.37.13 2.5-.03 3.11-.17.6.41.42-.97.53s-5.96.26-7.33.13-.72-.14-.92-.9c-.19-.76.07-3.13-.25-3.66-.33-.53-.94.36-1.69.47s-1.9.4-2.8.18-1.91-.81-2.61-1.5c-.71-.68-1.09-1.91-1.63-2.62-.53-.7-1.03-1.15-1.58-1.61-.55-.45-1.81-.98-1.71-1.13s1.66-.03 2.32.22 1.06.77 1.65 1.27c.58.51 1.17 1.29 1.86 1.77s1.47.97 2.27 1.1c.79.13 1.88-.1 2.51-.31.63-.22 1.02-.56 1.24-.98.23-.42-.01-1.06.12-1.53.13-.48.41-1.02.67-1.34s1.27-.36.87-.6-2.21-.53-3.28-.85c-1.07-.31-2.35-.47-3.14-1.03s-1.13-1.01-1.6-2.33c-.46-1.32-1.15-3.79-1.19-5.61-.05-1.81.56-4.15.95-5.27C-.32 4.57.57 4.81.67 4.24c.09-.57-.68-1.26-.79-1.96C-.23 1.57-.02.38 0 0m0 0c.42.15 1.82.44 2.52.89.71.45 1.03 1.64 1.7 1.82s.86-.65 2.32-.76 5.05.04 6.46.09c1.42.05 1.42.37 2.02.2.59-.18.94-.79 1.56-1.25.62-.45 1.7-1.59 2.16-1.5s.51 1.39.6 2.07-.38 1.36-.06 2.01 1.51.67 1.99 1.9c.47 1.22.85 3.58.88 5.44.04 1.86-.24 4.38-.69 5.7s-1.23 1.65-2.02 2.21c-.8.57-1.8.88-2.75 1.19-.96.31-2.61.42-2.97.65-.37.24.5.35.78.74.28.4.71.51.89 1.64s.16 3.76.18 5.14c.03 1.37.13 2.5-.03 3.11-.17.6.41.42-.97.53s-5.96.26-7.33.13-.72-.14-.92-.9c-.19-.76.07-3.13-.25-3.66-.33-.53-.94.36-1.69.47s-1.9.4-2.8.18-1.91-.81-2.61-1.5c-.71-.68-1.09-1.91-1.63-2.62-.53-.7-1.03-1.15-1.58-1.61-.55-.45-1.81-.98-1.71-1.13s1.66-.03 2.32.22 1.06.77 1.65 1.27c.58.51 1.17 1.29 1.86 1.77s1.47.97 2.27 1.1c.79.13 1.88-.1 2.51-.31.63-.22 1.02-.56 1.24-.98.23-.42-.01-1.06.12-1.53.13-.48.41-1.02.67-1.34s1.27-.36.87-.6-2.21-.53-3.28-.85c-1.07-.31-2.35-.47-3.14-1.03s-1.13-1.01-1.6-2.33c-.46-1.32-1.15-3.79-1.19-5.61-.05-1.81.56-4.15.95-5.27C-.32 4.57.57 4.81.67 4.24c.09-.57-.68-1.26-.79-1.96C-.23 1.57-.02.38 0 0" class="B C D"/></g><g transform="matrix(1 0 0 1 316.873917 15.839615)" class="B C"><path d="M-.26 6.4C.51 5.68 1.32 3.79 4.99.36M-.26 6.4C1.67 4.46 3.36 2.56 4.99.36M.13 12.04c3.6-3.5 5.29-7.56 10.5-12.07M.13 12.04c2.2-2.17 4.9-5.46 10.5-12.07M-.13 18.44C5.2 12.06 9 8.38 15.62.33M-.13 18.44C3.76 12.62 7.51 8.13 15.62.33M.27 24.08C8.74 15.72 13.91 7.64 21.26-.07M.27 24.08C7.65 15.66 14.98 6.36 21.26-.07M0 30.48C7.76 23.36 12.83 17.7 26.25.29M0 30.48C8.8 20.34 17.17 11.51 26.25.29M-.26 36.88L31.89-.1M-.26 36.88C10.08 23.88 21.28 11.5 31.89-.1M.14 42.52C12.27 26.11 27.72 10.98 36.88.26M.14 42.52C11.64 28.5 22.6 15.96 36.88.26m-37 48.66C13.39 32.89 26.53 15.32 42.52-.14M-.12 48.92C12.4 34.96 25.07 18.97 42.52-.14M.27 54.56C15.04 38.95 26.69 25.78 47.51.22M.27 54.56C17.33 33.06 35.07 13.64 47.51.22M3.29 57.19C18.33 38.53 32.89 21.7 53.15-.17M3.29 57.19C14.85 45.01 26.22 30.75 53.15-.17M8.93 56.79C25.98 34.09 45.24 12.42 58.14.19M8.93 56.79C24.85 39.87 38.59 22.15 58.14.19M13.92 57.15C28.5 37.68 45.49 23.45 63.78-.21M13.92 57.15L63.78-.21M19.56 56.76L68.77.15M19.56 56.76L68.77.15M24.55 57.12c8.51-11.43 18.97-24.8 49.86-57.36M24.55 57.12C40.71 37.56 57.46 20.18 74.41-.24M29.54 57.48C40.37 42.09 54.44 31.32 79.4.12M29.54 57.48L79.4.12M35.18 57.08C51.56 36.41 70.68 12.94 85.04-.28M35.18 57.08C44.84 44.92 56.39 32.65 85.04-.28M40.17 57.44C55.8 40.88 68.44 23.2 90.03.08M40.17 57.44C54.8 42.92 67.75 27.28 90.03.08M45.81 57.05C66.65 35.86 85.46 12.38 95.67-.31M45.81 57.05C59.72 40.1 74.69 25.43 95.67-.31M50.8 57.41C72.1 35.97 88.68 10.53 100.66.05M50.8 57.41C64.47 40.66 79.27 24.02 100.66.05M56.44 57.01C74.4 38.17 92.2 17.49 106.3-.34M56.44 57.01L106.3-.34M61.43 57.37C76.2 42.54 86.86 27.64 111.29.02M61.43 57.37C78.22 37.2 95.6 18.86 111.29.02M67.07 56.98c17.44-22.94 37.12-44.6 49.2-56.6m-49.2 56.6l49.2-56.6M72.06 57.34c17.26-22.05 33.81-39.6 49.86-57.36M72.06 57.34c16.73-18.09 31.56-35.08 49.86-57.36M77.7 56.94L126.91.34M77.7 56.94c9.9-12.65 22.57-25.34 49.21-56.6M82.69 57.3c12.95-13.85 21.07-23.88 49.86-57.35M82.69 57.3c13.16-14.09 27.14-30.89 49.86-57.35M88.33 56.91c14.73-14.97 29.39-35.32 49.21-56.6m-49.21 56.6c15.86-16.43 30.11-34.35 49.21-56.6M93.32 57.27c18.81-20.96 32.97-40.06 49.86-57.36M93.32 57.27c17.57-18.92 34.92-39.03 49.86-57.36M98.96 56.88C115.8 37.87 131.63 18.03 148.17.27M98.96 56.88C109.85 45.4 121.77 31.53 148.17.27m-44.22 56.97c15.39-19.57 31.01-36.23 49.86-57.36m-49.86 57.36c11.04-14.22 23.28-27 49.86-57.36m-44.22 56.96c21.2-22.82 38.24-43.68 49.21-56.6m-49.21 56.6C128.2 34.65 147.02 13.03 158.8.24M114.58 57.2c12.65-12.88 21.06-26.65 49.86-57.36M114.58 57.2c13.53-16.14 29.06-33.4 49.86-57.36m-44.22 56.97c14.35-17.99 27.35-33.3 49.21-56.61m-49.21 56.61C137.65 36.82 152.67 18.25 169.43.2m-44.22 56.97c11.68-10.71 21.07-25.43 45.27-52.08m-45.27 52.08c10.74-11.11 20.61-23.9 45.27-52.08m-39.63 51.68c14.89-16.78 25.43-30.64 40.02-46.04m-40.02 46.04c15.15-17.89 30.66-36.48 40.02-46.04m-35.03 46.4c10.12-13.16 24.04-25.55 34.77-40m-34.77 40c8.54-10.13 16.66-18.58 34.77-40m-29.78 40.36c6.79-8.38 17.12-18.77 30.17-34.71m-30.17 34.71c6.78-7.36 13.12-14.41 30.17-34.71M146.47 57.1c8.16-9.76 15.52-15.37 24.27-27.93M146.47 57.1c6.36-6.61 13.52-14.32 24.27-27.93m-19.28 28.29c5.63-8.22 14.69-17.01 19.02-21.89m-19.02 21.89c4.76-5.36 11.39-11.71 19.02-21.89M157.1 57.06c2.85-3.81 8.98-9.77 13.78-15.85M157.1 57.06c4.35-5.44 8.07-9.56 13.78-15.85m-8.79 16.21c1.8-2.09 4.29-4.52 8.52-9.81m-8.52 9.81c3.15-3.98 6.07-6.86 8.52-9.81m-2.88 9.42c1.53-1.65 1.92-2.5 3.28-3.78m-3.28 3.78c1.18-1.53 2.74-2.88 3.28-3.78" stroke="#ff6f5c" stroke-width=".5"/><path d="M0 0c40.8-2.29 84.75-1.52 170.39 0M0 0h170.39m0 0c-1.53 13.76-1.03 26.66 0 56.53m0-56.53v56.53m0 0c-42.71-1.9-87.4-.11-170.39 0m170.39 0c-40.91 1.07-82.36.04-170.39 0m0 0C2.01 33.85 1.69 14.66 0 0m0 56.53C-.02 35.42-1.43 15.22 0 0" class="D"/></g><g transform="matrix(1 0 0 1 305.812052 76.134196)" class="E F G H I"><text x="96.542" font-size="15.075" style="white-space:pre" y="0">Delete Telegram Message</text></g><g class="B C D"><path d="M23.2-.24c4.99-.75 11.35 1.47 15.53 4.67 4.17 3.21 8.23 9.42 9.5 14.55 1.27 5.14.46 11.6-1.89 16.26-2.36 4.67-7.44 9.63-12.23 11.73-4.8 2.11-11.6 2.41-16.54.9-4.93-1.52-10.25-5.65-13.09-9.97C1.64 33.59-.03 27.19.55 21.97c.57-5.22 3.33-11.66 7.35-15.39 4.03-3.74 13.89-6.06 16.8-7 2.91-.93.75.84.67 1.37m2.29-1.38c4.76.32 10.39 4.88 13.91 8.72s6.92 9.32 7.21 14.32-2.39 11.42-5.47 15.7-7.91 8.73-13 9.99c-5.08 1.27-12.9.09-17.51-2.38S4.49 38.27 2.63 33.49C.77 28.7.13 22.2 1.66 17.22 3.2 12.24 7.57 6.46 11.83 3.62 16.09.79 24.53.8 27.22.2s.73-.68.76-.17" transform="translate(23.956 16.025)"/><path d="M16.09.01c2.66.51 6.23 3.2 8.04 5.51 1.81 2.32 2.92 5.54 2.79 8.4-.13 2.85-1.66 6.57-3.58 8.72-1.93 2.14-5.21 3.78-7.97 4.14-2.77.36-6.25-.49-8.63-1.97-2.38-1.49-4.75-4.18-5.65-6.94s-.79-6.83.26-9.61C2.41 5.48 5 2.45 7.43 1.2 9.85-.06 14.37.78 15.89.75c1.51-.04.56.01.63.22M14.58.64c2.69.22 6.88 1.32 8.84 3.24 1.95 1.91 2.71 5.27 2.9 8.26.18 2.99-.05 7.29-1.81 9.67-1.75 2.37-5.95 4.05-8.72 4.56-2.78.52-5.55-.15-7.91-1.46-2.37-1.31-5.2-3.76-6.29-6.41-1.09-2.64-1-6.73-.25-9.46.75-2.74 2.35-5.36 4.77-6.95C8.53.49 14.3-.35 15.87-.52c1.56-.17-.27 1.26-.38 1.57" transform="translate(34.755 27.141)"/></g><path d="M.29.34C1.76-.35 7.3-3.68 8.71-4.45M.01.21C1.6-.39 8-3.14 9.4-3.99" transform="translate(48.137 39.945)" class="B C D"/><path d="M-.21.01c.67 1.47 3.65 7.6 4.49 9.1M.33-.28c.76 1.5 3.91 7.41 4.65 8.86" transform="translate(48.137 40.733)" class="B C D"/><path d="M-.19.19L4.79.11M.37-.02l4.3-.43" transform="translate(34.755 40.736)" class="B C D"/><path d="M.33.11C.38-.67.13-3.74.12-4.5M.06-.13C.09-.87-.12-3.42-.1-4.07" transform="translate(48.137 31.494)" class="B C D"/><path d="M.12-.04l.15-4.41M-.25-.37c-.06-.7.34-2.88.37-3.62" transform="translate(48.137 53.891)" class="B C D"/><path d="M.27.02l4.3.24m-4.6-.54c.7-.05 3.67.04 4.38.05" transform="translate(57.059 40.552)" class="B C D"/><g transform="matrix(1 0 0 1 327.290857 36.690687)"><path d="M4.98 0H24.5c3.32 0 4.98 1.66 4.98 4.98v9.96c0 3.32-1.66 4.98-4.98 4.98H4.98C1.66 19.92 0 18.26 0 14.94V4.98C0 1.66 1.66 0 4.98 0" fill="#fff"/><path d="M4.98 0H24.5M4.98 0H24.5m0 0c3.32 0 4.98 1.66 4.98 4.98M24.5 0c3.32 0 4.98 1.66 4.98 4.98m0 0v9.96m0-9.96v9.96m0 0c0 3.32-1.66 4.98-4.98 4.98m4.98-4.98c0 3.32-1.66 4.98-4.98 4.98m0 0H4.98m19.52 0H4.98m0 0C1.66 19.92 0 18.26 0 14.94m4.98 4.98C1.66 19.92 0 18.26 0 14.94m0 0V4.98m0 9.96V4.98m0 0C0 1.66 1.66 0 4.98 0M0 4.98C0 1.66 1.66 0 4.98 0" stroke-width="2" class="B C D"/></g><g transform="matrix(1 0 0 1 364.790456 34.883329)" class="E F G I"><text font-size="18.705" style="white-space:pre" x="0" y="0">Unsend email</text></g><g transform="matrix(1 0 0 1 330.451294 39.989614)"><use xlink:href="#B" fill="#1e1e1e"/><use xlink:href="#B" class="B C D"/></g></svg>